# xmcd
#
# Track frame offsets:
# 150
# 14995
# 31920
# 43412
# 56130
# 70781
# 83964
# 98636
# 114353
# 125474
# 137601
# 149673
# 162557
# 176614
# 188433
# 204951
# 221091
# 233757
# 244642
# 257672
# 268515
# 281135
# 296664
# 311114
# 325116
# 337611
#
# Disc length: 4708 seconds
#
#
# Revision: 0
# Processed by: cddbd v1.5.2PL0 Copyright (c) Steve Scherf et al.
# Submitted via: FreeRIP 2.945 
#
DISCID=8912621a
DTITLE=Cooper-JF1826 - Last-Mohicans03
DYEAR=1826
DGENRE=Native American
TTITLE0=LM 0301
TTITLE1=LM 0302
TTITLE2=LM 0303
TTITLE3=LM 0304
TTITLE4=LM 0305
TTITLE5=LM 0306
TTITLE6=LM 0307
TTITLE7=LM 0308
TTITLE8=LM 0309
TTITLE9=LM 0310
TTITLE10=LM 0311
TTITLE11=LM 0312
TTITLE12=LM 0313
TTITLE13=LM 0314
TTITLE14=LM 0315
TTITLE15=LM 0316
TTITLE16=LM 0317
TTITLE17=LM 0318
TTITLE18=LM 0319
TTITLE19=LM 0320
TTITLE20=LM 0321
TTITLE21=LM 0322
TTITLE22=LM 0323
TTITLE23=LM 0324
TTITLE24=LM 0325
TTITLE25=LM 0326
EXTD=The Last of the Mohicans Tantor Media\nby James Finimore Cooper 12 CDs\nread by William Costello native country
EXTT0=
EXTT1=
EXTT2=
EXTT3=
EXTT4=
EXTT5=
EXTT6=
EXTT7=
EXTT8=
EXTT9=
EXTT10=
EXTT11=
EXTT12=
EXTT13=
EXTT14=
EXTT15=
EXTT16=
EXTT17=
EXTT18=
EXTT19=
EXTT20=
EXTT21=
EXTT22=
EXTT23=
EXTT24=
EXTT25=
PLAYORDER=
